<svg width="14" height="4" viewBox="0 0 14 4" fill="none" xmlns="http://www.w3.org/2000/svg">
<path d="M11.7037 2.85356C11.1228 2.85356 10.6519 2.38266 10.6519 1.80178C10.6519 1.2209 11.1228 0.75 11.7037 0.75C12.2846 0.75 12.7555 1.2209 12.7555 1.80178C12.7555 2.38266 12.2846 2.85356 11.7037 2.85356Z" stroke="#545454" stroke-width="1.5"/>
<path d="M11.7037 2.42666C11.3585 2.42666 11.0787 2.14684 11.0787 1.80166C11.0787 1.45648 11.3585 1.17666 11.7037 1.17666C12.0489 1.17666 12.3287 1.45648 12.3287 1.80166C12.3287 2.14684 12.0489 2.42666 11.7037 2.42666Z" stroke="#545454" stroke-width="1.5"/>
<path d="M6.75273 2.85356C6.17185 2.85356 5.70095 2.38266 5.70095 1.80178C5.70095 1.2209 6.17185 0.75 6.75273 0.75C7.33361 0.75 7.80451 1.2209 7.80451 1.80178C7.80451 2.38266 7.33361 2.85356 6.75273 2.85356Z" stroke="#545454" stroke-width="1.5"/>
<path d="M6.75273 2.42666C6.40756 2.42666 6.12773 2.14684 6.12773 1.80166C6.12773 1.45648 6.40756 1.17666 6.75273 1.17666C7.09791 1.17666 7.37773 1.45648 7.37773 1.80166C7.37773 2.14684 7.09791 2.42666 6.75273 2.42666Z" stroke="#545454" stroke-width="1.5"/>
<path d="M1.80175 2.85356C1.22087 2.85356 0.749974 2.38266 0.749974 1.80178C0.749974 1.2209 1.22087 0.749999 1.80175 0.75C2.38263 0.75 2.85353 1.2209 2.85353 1.80178C2.85353 2.38266 2.38263 2.85356 1.80175 2.85356Z" stroke="#545454" stroke-width="1.5"/>
<path d="M1.80175 2.42666C1.45657 2.42666 1.17675 2.14684 1.17675 1.80166C1.17675 1.45648 1.45657 1.17666 1.80175 1.17666C2.14693 1.17666 2.42675 1.45648 2.42675 1.80166C2.42675 2.14684 2.14693 2.42666 1.80175 2.42666Z" stroke="#545454" stroke-width="1.5"/>
</svg>
