<svg width="48" height="48" viewBox="0 0 48 48" fill="none" xmlns="http://www.w3.org/2000/svg">
<rect width="48" height="48" rx="24" fill="black" fill-opacity="0.01"/>
<path d="M29.941 25.2621C29.2439 25.2621 28.6789 24.697 28.6789 23.9999C28.6789 23.3029 29.2439 22.7378 29.941 22.7378C30.638 22.7378 31.2031 23.3029 31.2031 23.9999C31.2031 24.697 30.638 25.2621 29.941 25.2621Z" stroke="white" stroke-width="1.5"/>
<path d="M29.941 24.7498C29.5268 24.7498 29.191 24.414 29.191 23.9998C29.191 23.5856 29.5268 23.2498 29.941 23.2498C30.3552 23.2498 30.691 23.5856 30.691 23.9998C30.691 24.414 30.3552 24.7498 29.941 24.7498Z" stroke="white" stroke-width="1.5"/>
<path d="M23.9998 25.2621C23.3028 25.2621 22.7377 24.697 22.7377 23.9999C22.7377 23.3029 23.3028 22.7378 23.9998 22.7378C24.6969 22.7378 25.2619 23.3029 25.2619 23.9999C25.2619 24.697 24.6969 25.2621 23.9998 25.2621Z" stroke="white" stroke-width="1.5"/>
<path d="M23.9998 24.7498C23.5856 24.7498 23.2498 24.414 23.2498 23.9998C23.2498 23.5856 23.5856 23.2498 23.9998 23.2498C24.414 23.2498 24.7498 23.5856 24.7498 23.9998C24.7498 24.414 24.414 24.7498 23.9998 24.7498Z" stroke="white" stroke-width="1.5"/>
<path d="M18.0586 25.2621C17.3616 25.2621 16.7965 24.697 16.7965 23.9999C16.7965 23.3029 17.3616 22.7378 18.0586 22.7378C18.7557 22.7378 19.3208 23.3029 19.3208 23.9999C19.3208 24.697 18.7557 25.2621 18.0586 25.2621Z" stroke="white" stroke-width="1.5"/>
<path d="M18.0586 24.7498C17.6444 24.7498 17.3086 24.414 17.3086 23.9998C17.3086 23.5856 17.6444 23.2498 18.0586 23.2498C18.4728 23.2498 18.8086 23.5856 18.8086 23.9998C18.8086 24.414 18.4728 24.7498 18.0586 24.7498Z" stroke="white" stroke-width="1.5"/>
</svg>
