<svg width="20" height="22" viewBox="0 0 20 22" fill="none" xmlns="http://www.w3.org/2000/svg">
<path d="M7.81965 14.3017V15.7578C7.81965 16.4548 7.35013 17.0642 6.67627 17.2419L6.35105 17.3277C5.54198 17.5411 4.75 16.9309 4.75 16.0942C4.75 15.515 5.14025 15.0084 5.70034 14.8607L7.81965 14.3017ZM7.81965 14.3017V8.46998L14.25 6.75V12.5734M14.25 12.5734V14.0376C14.25 14.7347 13.7804 15.3442 13.1064 15.522L12.7794 15.6082C11.9711 15.8214 11.1798 15.2117 11.1798 14.3758C11.1798 13.7993 11.5668 13.2946 12.1235 13.1449L14.25 12.5734ZM2.75 0.75H16.75M0.75 4.75C0.75 4.19772 1.19772 3.75 1.75 3.75H17.75C18.3023 3.75 18.75 4.19772 18.75 4.75V19.75C18.75 20.3023 18.3023 20.75 17.75 20.75H1.75C1.19772 20.75 0.75 20.3023 0.75 19.75V4.75Z" stroke="white" stroke-width="1.5" stroke-linecap="round" stroke-linejoin="round"/>
</svg>
